<svg width="56" height="56" viewBox="0 0 56 56" fill="none" xmlns="http://www.w3.org/2000/svg">
<circle cx="28" cy="28" r="22" fill="#C4C4C4" fill-opacity="0.4"/>
<path d="M17 15L19.2768 42L29.5 45L39.7196 42.0019L42 15H17Z" fill="#2196F3"/>
<path d="M37.1324 23.8294L36.8449 27.2213L35.977 37.3894L29.5002 39.27L29.4949 39.2719L23.0217 37.3894L22.5699 32.0719H25.7413L25.977 34.83L29.4967 35.8275L29.4984 35.8256L33.0234 34.8281L33.5038 30.2325L22.4181 30.2644L22.1038 27.1219L33.7699 26.9775L34.0056 23.6138L21.7913 23.6494L21.5859 20.52H29.5002H37.4145L37.1324 23.8294Z" fill="#FAFAFA"/>
<path d="M6.55076 45.9981C9.60914 49.6429 13.5459 52.4483 17.9894 54.1493C22.433 55.8504 27.2367 56.3911 31.9472 55.7204C36.6577 55.0496 41.1195 53.1896 44.9116 50.3158C48.7037 47.4421 51.701 43.6493 53.6204 39.2957C55.5399 34.942 56.3183 30.1711 55.8821 25.4331C55.4459 20.6951 53.8095 16.1464 51.1274 12.2164C48.4454 8.2864 44.806 5.10467 40.553 2.97156C36.2999 0.838448 31.5734 -0.175684 26.8197 0.0248895L27.0003 4.30598C31.0266 4.1361 35.0298 4.99504 38.632 6.80172C42.2342 8.6084 45.3166 11.3032 47.5882 14.6318C49.8598 17.9604 51.2458 21.813 51.6152 25.8259C51.9847 29.8388 51.3254 33.8797 49.6997 37.5671C48.074 41.2545 45.5354 44.4668 42.3236 46.9008C39.1118 49.3348 35.3328 50.9102 31.3431 51.4783C27.3535 52.0464 23.2849 51.5884 19.5214 50.1477C15.7578 48.7069 12.4235 46.3308 9.83318 43.2438L6.55076 45.9981Z" fill="#3B5999"/>
</svg>
