<svg width="56" height="56" viewBox="0 0 56 56" fill="none" xmlns="http://www.w3.org/2000/svg">
<circle cx="28" cy="28" r="22" fill="#C4C4C4" fill-opacity="0.4"/>
<g clip-path="url(#clip0_288_377)">
<path d="M23.001 45C25.7604 45 28 42.76 28 40V35H23.001C20.2415 35 18.002 37.24 18.002 40C18.002 42.76 20.2415 45 23.001 45Z" fill="#0ACF83"/>
<path d="M18.002 30C18.002 27.24 20.2415 25 23.001 25H28V35H23.001C20.2415 35 18.002 32.76 18.002 30Z" fill="#A259FF"/>
<path d="M18.01 20C18.01 17.24 20.2496 15 23.009 15H28.008V25H23.009C20.2496 25 18.01 22.76 18.01 20Z" fill="#F24E1E"/>
<path d="M28 15H32.999C35.7584 15 37.998 17.24 37.998 20C37.998 22.76 35.7584 25 32.999 25H28V15Z" fill="#FF7262"/>
<path d="M37.998 30C37.998 32.76 35.7584 35 32.999 35C30.2396 35 28 32.76 28 30C28 27.24 30.2396 25 32.999 25C35.7584 25 37.998 27.24 37.998 30Z" fill="#1ABCFE"/>
</g>
<path d="M13.8173 52.1423C17.5294 54.323 21.6944 55.6184 25.9885 55.9277C30.2826 56.2369 34.5902 55.5519 38.5765 53.9256C42.5628 52.2994 46.1204 49.7759 48.9727 46.5511C51.8251 43.3264 53.8955 39.4873 55.0229 35.3323C56.1503 31.1773 56.3044 26.8183 55.4732 22.5941C54.642 18.3698 52.8479 14.3942 50.2303 10.9761C47.6127 7.55798 44.2422 4.78952 40.3807 2.88589C36.5192 0.982252 32.2707 -0.0052882 27.9655 2.12932e-05L27.9708 4.28492C31.6171 4.28042 35.2155 5.11684 38.486 6.72915C41.7566 8.34147 44.6113 10.6863 46.8283 13.5813C49.0453 16.4763 50.5649 19.8436 51.2689 23.4214C51.9729 26.9991 51.8424 30.6911 50.8875 34.2102C49.9326 37.7294 48.1791 40.981 45.7632 43.7122C43.3474 46.4435 40.3342 48.5808 36.9579 49.9582C33.5817 51.3355 29.9333 51.9158 26.2963 51.6538C22.6593 51.3919 19.1317 50.2948 15.9877 48.4478L13.8173 52.1423Z" fill="#3B5999"/>
<defs>
<clipPath id="clip0_288_377">
<rect width="20" height="30" fill="white" transform="translate(18 15)"/>
</clipPath>
</defs>
</svg>
