<svg width="56" height="56" viewBox="0 0 56 56" fill="none" xmlns="http://www.w3.org/2000/svg">
<circle cx="28" cy="28" r="22" fill="#C4C4C4" fill-opacity="0.4"/>
<path d="M28 56C31.677 56 35.318 55.2758 38.7151 53.8686C42.1123 52.4615 45.1989 50.399 47.799 47.799C50.399 45.1989 52.4615 42.1123 53.8686 38.7151C55.2758 35.318 56 31.677 56 28C56 24.323 55.2758 20.682 53.8686 17.2849C52.4615 13.8877 50.399 10.8011 47.799 8.20101C45.1989 5.60097 42.1123 3.5385 38.7151 2.13137C35.318 0.724241 31.677 -1.60727e-07 28 0L28 4.2849C31.1143 4.2849 34.1981 4.89831 37.0754 6.0901C39.9526 7.2819 42.567 9.02874 44.7691 11.2309C46.9713 13.433 48.7181 16.0474 49.9099 18.9246C51.1017 21.8019 51.7151 24.8857 51.7151 28C51.7151 31.1143 51.1017 34.1981 49.9099 37.0754C48.7181 39.9526 46.9713 42.567 44.7691 44.7691C42.567 46.9713 39.9526 48.7181 37.0754 49.9099C34.1981 51.1017 31.1143 51.7151 28 51.7151L28 56Z" fill="#3B5999"/>
<path d="M40.1335 26.1145L29.2668 14.2291C28.9335 13.8645 28.4668 13.6458 28.0002 13.6458C27.5335 13.6458 27.0668 13.8645 26.7335 14.2291L24.4002 16.7812L27.1335 19.7708C27.4002 19.6249 27.6668 19.552 28.0002 19.552C29.1335 19.552 30.0002 20.4999 30.0002 21.7395C30.0002 22.1041 29.9335 22.3958 29.8002 22.6874L32.4668 25.6041C32.7335 25.4583 33.0002 25.3853 33.3335 25.3853C34.4668 25.3853 35.3335 26.3333 35.3335 27.5728C35.3335 28.8124 34.4668 29.7603 33.3335 29.7603C32.2002 29.7603 31.3335 28.8124 31.3335 27.5728C31.3335 27.2083 31.4002 26.9166 31.5335 26.6249L28.8668 23.7083C28.8002 23.7083 28.7335 23.7812 28.6668 23.7812V31.3645C29.4668 31.6562 30.0002 32.4583 30.0002 33.4062C30.0002 34.6458 29.1335 35.5937 28.0002 35.5937C26.8668 35.5937 26.0002 34.6458 26.0002 33.4062C26.0002 32.4583 26.5335 31.6562 27.3335 31.3645V23.7083C26.5335 23.4166 26.0002 22.6145 26.0002 21.6666C26.0002 21.302 26.0668 21.0103 26.2002 20.7187L23.4668 17.7291L15.8668 26.1145C15.5335 26.4791 15.3335 26.9895 15.3335 27.4999C15.3335 28.0103 15.5335 28.5208 15.8668 28.8853L26.7335 40.7708C27.0668 41.1353 27.5335 41.3541 28.0002 41.3541C28.4668 41.3541 28.9335 41.1353 29.2668 40.7708L40.1335 28.8853C40.4668 28.5208 40.6668 28.0103 40.6668 27.4999C40.6668 26.9895 40.4668 26.4791 40.1335 26.1145Z" fill="#F4511E"/>
</svg>
