<svg width="56" height="56" viewBox="0 0 56 56" fill="none" xmlns="http://www.w3.org/2000/svg">
<circle cx="28" cy="28" r="22" fill="#C4C4C4" fill-opacity="0.4"/>
<path d="M16 15L17.7573 41.256L28.5 45L39.2427 41.256L41 15H16Z" fill="#FF7816"/>
<path d="M36.3084 22.9688H24.0238L24.3221 27.3633H36.0101L35.2971 38.0038L28.5 40.4121L21.7028 38.0038L21.4708 34.4531H24.7865L24.8527 35.4199L28.5 36.703L32.1472 35.4199L32.4455 30.8789H21.2221L20.4595 19.4531H36.5404L36.3084 22.9688Z" fill="#ECECF1"/>
<path d="M0.566087 33.6018C1.61715 38.7492 4.09519 43.4971 7.71697 47.3028C11.3388 51.1085 15.9582 53.8185 21.0473 55.123C26.1363 56.4276 31.4898 56.2741 36.4958 54.68C41.5017 53.0859 45.9582 50.1157 49.356 46.1087C52.7537 42.1016 54.9555 37.2195 55.7099 32.0204C56.4642 26.8212 55.7406 21.5146 53.6217 16.7072C51.5029 11.8998 48.0742 7.78551 43.7277 4.83453C39.3812 1.88354 34.2921 0.214928 29.0421 0.0193991L28.8826 4.30133C33.3292 4.46694 37.6395 5.8802 41.3209 8.37959C45.0022 10.879 47.9062 14.3637 49.7008 18.4354C51.4954 22.5071 52.1083 27.0016 51.4694 31.4051C50.8305 35.8087 48.9656 39.9436 46.0878 43.3374C43.21 46.7313 39.4355 49.247 35.1956 50.5971C30.9557 51.9472 26.4215 52.0772 22.1113 50.9723C17.801 49.8674 13.8885 47.5722 10.8209 44.3489C7.75339 41.1256 5.65458 37.1043 4.76436 32.7446L0.566087 33.6018Z" fill="#3B5999"/>
</svg>
