<svg xmlns="http://www.w3.org/2000/svg"  viewBox="0 0 64 64" width="35px" height="35px"><linearGradient id="U1n-8Ri1Ipj52wY44N5jHa" x1="35" x2="35" y1="15" y2="43.171" gradientUnits="userSpaceOnUse"><stop offset="0" stop-color="#6dc7ff"/><stop offset="1" stop-color="#e6abff"/></linearGradient><path fill="url(#U1n-8Ri1Ipj52wY44N5jHa)" d="M23,14v13h24V14H23z M27,25h-3v-2h3V25z M27,19h-3v-2h3V19z M46,25h-3v-2h3V25z M46,19h-3v-2	h3V19z"/><linearGradient id="U1n-8Ri1Ipj52wY44N5jHb" x1="35" x2="35" y1="15" y2="43.171" gradientUnits="userSpaceOnUse"><stop offset="0" stop-color="#6dc7ff"/><stop offset="1" stop-color="#e6abff"/></linearGradient><path fill="url(#U1n-8Ri1Ipj52wY44N5jHb)" d="M23,31v13h15l9-5v-8H23z M27,41h-3v-2h3V41z M27,35h-3v-2h3V35z M46,35h-3v-2h3V35z"/><linearGradient id="U1n-8Ri1Ipj52wY44N5jHc" x1="35" x2="35" y1="7.333" y2="58.338" gradientUnits="userSpaceOnUse"><stop offset="0" stop-color="#1a6dff"/><stop offset="1" stop-color="#c822ff"/></linearGradient><path fill="url(#U1n-8Ri1Ipj52wY44N5jHc)" d="M37,45H19c-0.552,0-1-0.447-1-1V14c0-0.553,0.448-1,1-1h32c0.552,0,1,0.447,1,1v22.648h-2V15 H20v28h18L37,45z"/><g><linearGradient id="U1n-8Ri1Ipj52wY44N5jHd" x1="34" x2="34" y1="7.333" y2="58.338" gradientUnits="userSpaceOnUse"><stop offset="0" stop-color="#1a6dff"/><stop offset="1" stop-color="#c822ff"/></linearGradient><path fill="url(#U1n-8Ri1Ipj52wY44N5jHd)" d="M54.635,28.49L54,28.132v2.317c0.868,0.585,1,1.108,1,1.551c0,0.495-0.16,1.093-1.346,1.766 L16.352,54.798c-0.681,0.387-1.133,0.518-1.794,0.518C13.27,55.315,13,54.345,13,53.53V10.47c0-0.814,0.27-1.785,1.558-1.785 c0.661,0,1.113,0.131,1.797,0.52L19.54,11h4.072L17.34,7.464c-0.822-0.468-1.61-0.779-2.782-0.779C12.43,6.685,11,8.206,11,10.47 V53.53c0,2.264,1.43,3.785,3.558,3.785c1.172,0,1.96-0.312,2.779-0.777l37.302-21.031C55.223,35.175,57,34.167,57,32 C57,29.828,55.221,28.822,54.635,28.49z"/></g></svg>