<?xml version="1.0" encoding="UTF-8"?>
<svg xmlns="http://www.w3.org/2000/svg" xmlns:xlink="http://www.w3.org/1999/xlink" viewBox="0 0 25 25" width="25px" height="25px">
<g id="surface2138579">
<path style=" stroke:none;fill-rule:nonzero;fill:rgb(100%,100%,100%);fill-opacity:1;" d="M 12.5 2.34375 C 6.890625 2.34375 2.34375 6.890625 2.34375 12.5 C 2.34375 18.109375 6.890625 22.65625 12.5 22.65625 C 18.109375 22.65625 22.65625 18.109375 22.65625 12.5 C 22.65625 6.890625 18.109375 2.34375 12.5 2.34375 Z M 9.765625 17.1875 L 7.8125 17.1875 L 7.8125 10.15625 L 9.765625 10.15625 Z M 8.785156 9.375 L 8.773438 9.375 C 8.191406 9.375 7.8125 8.941406 7.8125 8.398438 C 7.8125 7.84375 8.199219 7.421875 8.792969 7.421875 C 9.386719 7.421875 9.753906 7.84375 9.765625 8.398438 C 9.765625 8.941406 9.386719 9.375 8.785156 9.375 Z M 17.1875 17.1875 L 15.234375 17.1875 L 15.234375 13.671875 C 15.234375 12.5 14.667969 12.109375 14.0625 12.109375 C 13.496094 12.109375 12.890625 12.5 12.890625 13.671875 L 12.890625 17.1875 L 10.9375 17.1875 L 10.9375 10.15625 L 12.890625 10.15625 L 12.890625 11.328125 C 13.023438 10.945312 13.664062 10.15625 14.84375 10.15625 C 16.40625 10.15625 17.1875 11.328125 17.1875 13.28125 Z M 17.1875 17.1875 "/>
</g>
</svg>
